<svg xmlns="http://www.w3.org/2000/svg" viewBox="0 0 64 64" fill="none">
  <defs>
    <linearGradient id="g" x1="0" y1="0" x2="64" y2="64" gradientUnits="userSpaceOnUse">
      <stop offset="0%" stop-color="#4f46e5"/>
      <stop offset="50%" stop-color="#7c3aed"/>
      <stop offset="100%" stop-color="#9333ea"/>
    </linearGradient>
  </defs>
  <rect width="64" height="64" rx="14" fill="url(#g)"/>
  <path d="M26.1 42.4 24 48l-2.1-7.6a12 12 0 0 0-8.2-8.2L6 30l7.6-2.2a12 12 0 0 0 8.2-8.2L24 12l2.1 7.6a12 12 0 0 0 8.2 8.2L42 30l-7.6 2.2a12 12 0 0 0-8.2 8.2ZM48.7 23.2 48 26l-.7-2.8a9 9 0 0 0-6.5-6.5L38 16l2.8-.7a9 9 0 0 0 6.5-6.5L48 6l.7 2.8a9 9 0 0 0 6.5 6.5L58 16l-2.8.7a9 9 0 0 0-6.5 6.5Z" stroke="white" stroke-width="2" stroke-linecap="round" stroke-linejoin="round"/>
</svg>
